<svg xmlns="http://www.w3.org/2000/svg" xmlns:xlink="http://www.w3.org/1999/xlink" width="500" zoomAndPan="magnify" viewBox="0 0 375 374.999991" height="500" preserveAspectRatio="xMidYMid meet" version="1.2"><defs><clipPath id="80516c715b"><path d="M 106 110 L 247 110 L 247 242.238281 L 106 242.238281 Z M 106 110 "/></clipPath><clipPath id="8681df0ec1"><path d="M 101.199219 165.738281 L 101.199219 185.25 C 101.199219 216.730469 126.71875 242.25 158.199219 242.25 L 192.546875 242.25 C 224.027344 242.25 249.546875 216.730469 249.546875 185.25 L 249.546875 165.738281 C 249.546875 134.257812 224.027344 108.738281 192.546875 108.738281 L 158.199219 108.738281 C 126.71875 108.738281 101.199219 134.257812 101.199219 165.738281 Z M 101.199219 165.738281 "/></clipPath><clipPath id="d64d11dc24"><path d="M 149 140 L 184 140 L 184 173 L 149 173 Z M 149 140 "/></clipPath><clipPath id="454fbc8585"><path d="M 101.199219 165.738281 L 101.199219 185.25 C 101.199219 216.730469 126.71875 242.25 158.199219 242.25 L 192.546875 242.25 C 224.027344 242.25 249.546875 216.730469 249.546875 185.25 L 249.546875 165.738281 C 249.546875 134.257812 224.027344 108.738281 192.546875 108.738281 L 158.199219 108.738281 C 126.71875 108.738281 101.199219 134.257812 101.199219 165.738281 Z M 101.199219 165.738281 "/></clipPath><clipPath id="830579fb5e"><path d="M 246 242.253906 L 269.25 242.253906 L 269.25 262 L 246 262 Z M 246 242.253906 "/></clipPath><clipPath id="e22f2a8bb7"><path d="M 244 242.253906 L 269 242.253906 L 269 267 L 244 267 Z M 244 242.253906 "/></clipPath><clipPath id="e8c0c6305b"><path d="M 195.085938 159.960938 L 269.253906 159.960938 L 269.253906 230.460938 L 195.085938 230.460938 Z M 195.085938 159.960938 "/></clipPath></defs><g id="8d1623b427"><g style="fill:#f6f5f4;fill-opacity:1;"><g transform="translate(102.113911, 287.205567)"><path style="stroke:none" d="M 9.265625 -22.59375 C 11.140625 -22.59375 12.78125 -22.273438 14.1875 -21.640625 C 15.601562 -21.015625 16.78125 -20.164062 17.71875 -19.09375 C 18.65625 -18.019531 19.359375 -16.804688 19.828125 -15.453125 C 20.304688 -14.109375 20.546875 -12.722656 20.546875 -11.296875 C 20.546875 -9.878906 20.304688 -8.492188 19.828125 -7.140625 C 19.359375 -5.796875 18.65625 -4.582031 17.71875 -3.5 C 16.78125 -2.425781 15.601562 -1.570312 14.1875 -0.9375 C 12.78125 -0.3125 11.140625 0 9.265625 0 L 2.53125 0 L 2.53125 -22.59375 Z M 9.265625 -18.078125 L 7.046875 -18.078125 L 7.046875 -4.515625 L 9.265625 -4.515625 C 10.523438 -4.515625 11.601562 -4.753906 12.5 -5.234375 C 13.394531 -5.722656 14.109375 -6.375 14.640625 -7.1875 C 15.179688 -8 15.539062 -8.890625 15.71875 -9.859375 C 15.90625 -10.828125 15.90625 -11.789062 15.71875 -12.75 C 15.539062 -13.707031 15.179688 -14.59375 14.640625 -15.40625 C 14.109375 -16.21875 13.394531 -16.863281 12.5 -17.34375 C 11.601562 -17.832031 10.523438 -18.078125 9.265625 -18.078125 Z M 9.265625 -18.078125 "/></g></g><g style="fill:#f6f5f4;fill-opacity:1;"><g transform="translate(123.826728, 287.205567)"><path style="stroke:none" d="M 7.046875 0 L 2.53125 0 L 2.53125 -22.59375 L 7.046875 -22.59375 Z M 7.046875 0 "/></g></g><g style="fill:#f6f5f4;fill-opacity:1;"><g transform="translate(132.897326, 287.205567)"><path style="stroke:none" d="M 13.78125 0 L 9.234375 -8.625 L 7.046875 -8.625 L 7.046875 0 L 2.53125 0 L 2.53125 -22.59375 L 11.4375 -22.59375 C 12.789062 -22.59375 13.9375 -22.3125 14.875 -21.75 C 15.8125 -21.195312 16.539062 -20.472656 17.0625 -19.578125 C 17.59375 -18.679688 17.921875 -17.710938 18.046875 -16.671875 C 18.171875 -15.628906 18.09375 -14.609375 17.8125 -13.609375 C 17.53125 -12.609375 17.046875 -11.722656 16.359375 -10.953125 C 15.671875 -10.179688 14.769531 -9.640625 13.65625 -9.328125 L 18.90625 0 Z M 7.046875 -13.015625 L 11.03125 -13.015625 C 11.644531 -13.015625 12.132812 -13.179688 12.5 -13.515625 C 12.863281 -13.859375 13.109375 -14.28125 13.234375 -14.78125 C 13.367188 -15.289062 13.367188 -15.796875 13.234375 -16.296875 C 13.109375 -16.804688 12.863281 -17.226562 12.5 -17.5625 C 12.132812 -17.90625 11.644531 -18.078125 11.03125 -18.078125 L 7.046875 -18.078125 Z M 7.046875 -13.015625 "/></g></g><g style="fill:#f6f5f4;fill-opacity:1;"><g transform="translate(151.734037, 287.205567)"><path style="stroke:none" d="M 14.21875 0 L 2.53125 0 L 2.53125 -22.59375 L 13.84375 -22.59375 L 13.84375 -18.078125 L 7.046875 -18.078125 L 7.046875 -13.5625 L 12.984375 -13.5625 L 12.984375 -9.046875 L 7.046875 -9.046875 L 7.046875 -4.515625 L 14.21875 -4.515625 Z M 14.21875 0 "/></g></g><g style="fill:#f6f5f4;fill-opacity:1;"><g transform="translate(167.125744, 287.205567)"><path style="stroke:none" d="M 12.890625 -13.015625 L 21.8125 -22.953125 L 23.234375 -22.953125 L 23.234375 0 L 18.65625 0 L 18.6875 -12.609375 L 12.890625 -6.546875 L 7.109375 -12.609375 L 7.109375 0 L 2.53125 0 L 2.53125 -22.953125 L 3.984375 -22.953125 Z M 12.890625 -13.015625 "/></g></g><g style="fill:#f6f5f4;fill-opacity:1;"><g transform="translate(192.378378, 287.205567)"><path style="stroke:none" d="M 0.5 0 L 10.015625 -23.421875 L 10.5 -23.421875 L 20.015625 0 L 14.921875 0 L 14 -2.4375 L 6.515625 -2.4375 L 5.625 0 Z M 8.15625 -6.671875 L 12.328125 -6.671875 L 10.265625 -12.546875 Z M 8.15625 -6.671875 "/></g></g><g style="fill:#f6f5f4;fill-opacity:1;"><g transform="translate(212.479317, 287.205567)"><path style="stroke:none" d="M 13.78125 0 L 9.234375 -8.625 L 7.046875 -8.625 L 7.046875 0 L 2.53125 0 L 2.53125 -22.59375 L 11.4375 -22.59375 C 12.789062 -22.59375 13.9375 -22.3125 14.875 -21.75 C 15.8125 -21.195312 16.539062 -20.472656 17.0625 -19.578125 C 17.59375 -18.679688 17.921875 -17.710938 18.046875 -16.671875 C 18.171875 -15.628906 18.09375 -14.609375 17.8125 -13.609375 C 17.53125 -12.609375 17.046875 -11.722656 16.359375 -10.953125 C 15.671875 -10.179688 14.769531 -9.640625 13.65625 -9.328125 L 18.90625 0 Z M 7.046875 -13.015625 L 11.03125 -13.015625 C 11.644531 -13.015625 12.132812 -13.179688 12.5 -13.515625 C 12.863281 -13.859375 13.109375 -14.28125 13.234375 -14.78125 C 13.367188 -15.289062 13.367188 -15.796875 13.234375 -16.296875 C 13.109375 -16.804688 12.863281 -17.226562 12.5 -17.5625 C 12.132812 -17.90625 11.644531 -18.078125 11.03125 -18.078125 L 7.046875 -18.078125 Z M 7.046875 -13.015625 "/></g></g><g style="fill:#f6f5f4;fill-opacity:1;"><g transform="translate(231.316028, 287.205567)"><path style="stroke:none" d="M 10.78125 0 L 6.265625 0 L 6.265625 -18.078125 L 0.625 -18.078125 L 0.625 -22.5625 L 16.40625 -22.5625 L 16.40625 -18.078125 L 10.78125 -18.078125 Z M 10.78125 0 "/></g></g><g clip-rule="nonzero" clip-path="url(#80516c715b)"><g clip-rule="nonzero" clip-path="url(#8681df0ec1)"><path style=" stroke:none;fill-rule:nonzero;fill:#ffffff;fill-opacity:1;" d="M 244.792969 168.605469 L 201.171875 137.976562 C 198.859375 136.375 195.746094 136.582031 193.671875 138.507812 L 187.621094 144.144531 L 185.25 141.621094 C 176.144531 131.894531 160.816406 131.390625 151.089844 140.527344 C 141.363281 149.628906 140.859375 164.929688 149.960938 174.625 L 152.332031 177.148438 L 146.285156 182.8125 C 144.207031 184.738281 143.824219 187.851562 145.277344 190.253906 L 176.828125 242 C 176.589844 242.058594 176.382812 242.148438 176.175781 242.238281 C 164.667969 238.351562 153.132812 231.886719 142.726562 223.257812 C 137.210938 218.691406 132.019531 213.503906 127.277344 207.71875 C 119.535156 198.289062 113.902344 188.355469 110.375 178.570312 C 101.269531 153.1875 106.371094 128.84375 125.851562 117.21875 C 139.613281 109.003906 157.878906 108.738281 176.175781 114.90625 C 194.472656 108.738281 212.738281 109.003906 226.496094 117.21875 C 243.398438 127.300781 249.449219 146.960938 244.792969 168.605469 Z M 244.792969 168.605469 "/></g></g><g clip-rule="nonzero" clip-path="url(#d64d11dc24)"><g clip-rule="nonzero" clip-path="url(#454fbc8585)"><path style=" stroke:none;fill-rule:nonzero;fill:#ffffff;fill-opacity:1;" d="M 155.359375 145.0625 C 148.152344 151.824219 147.765625 163.179688 154.527344 170.355469 L 156.898438 172.878906 L 183.085938 148.382812 L 180.710938 145.863281 C 173.949219 138.6875 162.5625 138.300781 155.359375 145.0625 Z M 155.359375 145.0625 "/></g></g><g clip-rule="nonzero" clip-path="url(#830579fb5e)"><path style=" stroke:none;fill-rule:nonzero;fill:#ff914d;fill-opacity:1;" d="M 253.246094 213.351562 L 288.582031 216.984375 C 291.394531 217.277344 293.523438 219.640625 293.523438 222.46875 L 293.523438 255.359375 C 293.523438 258.183594 291.382812 260.550781 288.582031 260.839844 L 279.785156 261.75 C 273.878906 262.359375 269.269531 256.746094 271 251.078125 L 271.9375 248 C 273.007812 244.5 271.238281 240.589844 267.355469 239.214844 C 266.007812 238.742188 264.527344 238.808594 263.152344 239.230469 L 258.714844 240.589844 C 252.585938 242.464844 246.390625 237.882812 246.390625 231.476562 L 246.390625 219.535156 C 246.402344 215.847656 249.585938 212.96875 253.246094 213.351562 Z M 253.246094 213.351562 "/></g><g clip-rule="nonzero" clip-path="url(#e22f2a8bb7)"><path style=" stroke:none;fill-rule:nonzero;fill:#f6f5f4;fill-opacity:1;" d="M 268.160156 246.839844 L 262.730469 264.632812 C 261.9375 267.21875 258.34375 267.40625 257.289062 264.910156 L 255.503906 260.667969 C 254.554688 258.421875 252.769531 256.625 250.511719 255.675781 L 246.273438 253.890625 C 243.777344 252.835938 243.960938 249.242188 246.550781 248.449219 L 264.34375 243.019531 C 266.679688 242.292969 268.875 244.488281 268.160156 246.839844 Z M 268.160156 246.839844 "/></g><g clip-rule="nonzero" clip-path="url(#e8c0c6305b)"><path style=" stroke:none;fill-rule:nonzero;fill:#f6f5f4;fill-opacity:1;" d="M 197.632812 159.980469 C 197.746094 159.980469 197.863281 159.992188 197.976562 160.011719 C 197.976562 160.011719 197.980469 160.011719 197.980469 160.011719 L 209.253906 161.9375 C 209.972656 162.058594 210.570312 162.550781 210.835938 163.226562 C 210.835938 163.230469 210.835938 163.230469 210.835938 163.234375 L 216.066406 176.644531 L 267.117188 177.917969 C 267.703125 177.933594 268.253906 178.199219 268.636719 178.640625 C 269.019531 179.082031 269.203125 179.671875 269.128906 180.257812 L 266.3125 203.566406 C 266.195312 204.542969 265.386719 205.320312 264.40625 205.394531 L 228.011719 208.289062 L 220.800781 213.964844 C 220.792969 213.972656 220.785156 213.976562 220.773438 213.984375 C 220.765625 213.988281 220.757812 213.992188 220.75 213.996094 C 220.742188 214.003906 220.734375 214.007812 220.722656 214.015625 C 219.40625 214.996094 219.082031 216.335938 219.265625 217.078125 C 219.375 217.503906 219.535156 217.816406 219.917969 218.054688 C 220.304688 218.296875 220.96875 218.46875 222.105469 218.402344 C 222.109375 218.402344 222.113281 218.402344 222.117188 218.402344 C 222.152344 218.402344 222.195312 218.402344 222.230469 218.402344 C 222.238281 218.402344 222.246094 218.402344 222.25 218.402344 L 265.65625 218.53125 L 265.660156 218.53125 C 266.800781 218.523438 267.761719 219.480469 267.757812 220.621094 C 267.753906 221.761719 266.789062 222.714844 265.648438 222.695312 L 265.640625 222.695312 L 262.46875 222.691406 C 263.648438 223.441406 264.4375 224.757812 264.4375 226.25 C 264.4375 228.570312 262.535156 230.472656 260.214844 230.472656 C 257.894531 230.472656 255.992188 228.570312 255.992188 226.25 C 255.992188 224.75 256.785156 223.421875 257.972656 222.671875 L 222.230469 222.570312 C 223.519531 223.296875 224.394531 224.675781 224.394531 226.25 C 224.394531 228.570312 222.496094 230.472656 220.171875 230.472656 C 217.851562 230.472656 215.949219 228.570312 215.949219 226.25 C 215.949219 224.234375 217.382812 222.53125 219.28125 222.121094 C 217.484375 221.484375 216.105469 220.175781 215.253906 218.175781 C 215.238281 218.152344 215.230469 218.125 215.21875 218.101562 C 214.566406 215.480469 215.726562 212.636719 218.121094 210.785156 C 218.128906 210.777344 218.132812 210.773438 218.140625 210.765625 C 218.144531 210.761719 218.148438 210.753906 218.152344 210.746094 C 218.171875 210.722656 218.195312 210.699219 218.222656 210.679688 L 223.332031 206.667969 L 207.394531 165.84375 L 197.28125 164.121094 C 197.277344 164.121094 197.277344 164.121094 197.273438 164.121094 C 196.210938 163.949219 195.433594 162.960938 195.527344 161.882812 C 195.617188 160.808594 196.554688 159.964844 197.636719 159.980469 Z M 217.605469 179.863281 L 220.546875 187.398438 L 224.375 187.398438 L 224.375 180.035156 Z M 225.839844 180.074219 L 225.839844 187.398438 L 232.914062 187.398438 L 232.914062 180.25 Z M 234.375 180.28125 L 234.375 187.398438 L 241.449219 187.398438 L 241.449219 180.457031 Z M 242.910156 180.496094 L 242.910156 187.398438 L 249.984375 187.398438 L 249.984375 180.675781 Z M 251.449219 180.710938 L 251.449219 187.398438 L 258.523438 187.398438 L 258.523438 180.890625 Z M 259.984375 180.921875 L 259.984375 187.398438 L 265.171875 187.398438 L 265.9375 181.074219 Z M 264.992188 188.855469 L 259.984375 188.855469 L 259.984375 195.472656 L 264.195312 195.472656 Z M 258.523438 188.855469 L 251.449219 188.855469 L 251.449219 195.472656 L 258.523438 195.472656 Z M 249.984375 188.855469 L 242.910156 188.855469 L 242.910156 195.472656 L 249.984375 195.472656 Z M 241.449219 188.855469 L 234.375 188.855469 L 234.375 195.472656 L 241.449219 195.472656 Z M 232.914062 188.855469 L 225.839844 188.855469 L 225.839844 195.472656 L 232.914062 195.472656 Z M 224.375 188.855469 L 221.109375 188.855469 L 223.691406 195.472656 L 224.375 195.472656 Z M 264.019531 196.929688 L 259.984375 196.929688 L 259.984375 201.679688 L 263.480469 201.402344 Z M 258.519531 196.929688 L 251.449219 196.929688 L 251.449219 202.355469 L 258.519531 201.792969 Z M 249.984375 196.929688 L 242.910156 196.929688 L 242.910156 203.035156 L 249.984375 202.476562 Z M 241.449219 196.929688 L 234.375 196.929688 L 234.375 203.71875 L 241.449219 203.15625 Z M 232.910156 196.929688 L 225.839844 196.929688 L 225.839844 200.957031 L 227.179688 204.394531 C 227.355469 204.3125 227.546875 204.261719 227.738281 204.246094 L 232.910156 203.832031 Z M 224.375 196.929688 L 224.269531 196.929688 L 224.375 197.226562 Z M 260.210938 223.769531 C 258.832031 223.769531 257.730469 224.871094 257.730469 226.25 C 257.730469 227.628906 258.832031 228.726562 260.210938 228.726562 C 261.589844 228.726562 262.695312 227.628906 262.695312 226.25 C 262.695312 224.871094 261.589844 223.769531 260.210938 223.769531 Z M 220.171875 223.769531 C 218.789062 223.769531 217.6875 224.871094 217.6875 226.25 C 217.6875 227.628906 218.789062 228.726562 220.171875 228.726562 C 221.550781 228.726562 222.652344 227.628906 222.652344 226.25 C 222.652344 224.871094 221.550781 223.769531 220.171875 223.769531 Z M 260.210938 224.945312 C 260.960938 224.945312 261.558594 225.546875 261.558594 226.292969 C 261.558594 227.042969 260.960938 227.636719 260.210938 227.636719 C 259.460938 227.636719 258.863281 227.042969 258.863281 226.292969 C 258.863281 225.546875 259.460938 224.945312 260.210938 224.945312 Z M 220.171875 224.945312 C 220.921875 224.945312 221.519531 225.546875 221.519531 226.292969 C 221.519531 227.042969 220.921875 227.636719 220.171875 227.636719 C 219.421875 227.636719 218.820312 227.042969 218.820312 226.292969 C 218.820312 225.546875 219.421875 224.945312 220.171875 224.945312 Z M 220.171875 224.945312 "/></g><path style="fill:none;stroke-width:5;stroke-linecap:round;stroke-linejoin:miter;stroke:#f6f5f4;stroke-opacity:1;stroke-miterlimit:4;" d="M 2.49967 2.498974 L 46.234048 2.498974 " transform="matrix(0.75,0,0,0.75,180.109622,181.199988)"/><path style="fill:none;stroke-width:5;stroke-linecap:round;stroke-linejoin:miter;stroke:#f6f5f4;stroke-opacity:1;stroke-miterlimit:4;" d="M 2.502151 2.499639 L 28.638366 2.499639 " transform="matrix(0.746988,-0.000000000000000648,0.000000000000000648,0.746988,196.482486,188.999988)"/><path style="fill:none;stroke-width:5;stroke-linecap:round;stroke-linejoin:miter;stroke:#f6f5f4;stroke-opacity:1;stroke-miterlimit:4;" d="M 2.49967 2.500017 L 35.135089 2.500017 " transform="matrix(0.75,-0.000000000000001116,0.000000000000001116,0.75,180.109622,195.749987)"/><path style="fill:none;stroke-width:5;stroke-linecap:round;stroke-linejoin:miter;stroke:#f6f5f4;stroke-opacity:1;stroke-miterlimit:4;" d="M 2.500011 2.500018 L 46.234388 2.500018 " transform="matrix(0.75,0,0,0.75,187.499992,208.499986)"/><path style="fill:none;stroke-width:5;stroke-linecap:round;stroke-linejoin:miter;stroke:#f6f5f4;stroke-opacity:1;stroke-miterlimit:4;" d="M 2.502519 2.500018 L 34.257729 2.500018 " transform="matrix(0.75,-0.000000000000001116,0.000000000000001116,0.75,196.482486,202.499987)"/><path style="fill:none;stroke-width:5;stroke-linecap:round;stroke-linejoin:miter;stroke:#f6f5f4;stroke-opacity:1;stroke-miterlimit:4;" d="M 2.49913 2.500017 L 19.384547 2.500017 " transform="matrix(0.75,0,0,0.75,175.371747,188.999988)"/><path style="fill:none;stroke-width:5;stroke-linecap:round;stroke-linejoin:miter;stroke:#f6f5f4;stroke-opacity:1;stroke-miterlimit:4;" d="M 2.49913 2.500018 L 8.441838 2.500018 " transform="matrix(0.75,-0.000000000000003906,0.000000000000003906,0.75,175.371747,202.499987)"/><path style="fill:none;stroke-width:5;stroke-linecap:round;stroke-linejoin:miter;stroke:#f6f5f4;stroke-opacity:1;stroke-miterlimit:4;" d="M 2.500174 2.500017 L 8.442883 2.500017 " transform="matrix(0.75,-0.000000000000003906,0.000000000000003906,0.75,210.171744,195.749987)"/></g></svg>